<svg width="187" height="35" viewBox="0 0 187 35" fill="none" xmlns="http://www.w3.org/2000/svg">
<path d="M59.8084 26H53.3271V8.46539H59.7998C61.5864 8.46539 63.1247 8.81642 64.4146 9.51849C65.7103 10.2149 66.7092 11.2194 67.4113 12.5323C68.1134 13.8394 68.4644 15.4033 68.4644 17.2241C68.4644 19.0507 68.1134 20.6203 67.4113 21.9331C66.7149 23.2459 65.7189 24.2534 64.4232 24.9555C63.1275 25.6518 61.5892 26 59.8084 26ZM57.5652 22.3869H59.6457C60.6275 22.3869 61.458 22.2214 62.1372 21.8903C62.8221 21.5536 63.3387 21.0085 63.6869 20.255C64.0408 19.4959 64.2177 18.4856 64.2177 17.2241C64.2177 15.9627 64.0408 14.9581 63.6869 14.2104C63.333 13.4569 62.8107 12.9147 62.1201 12.5836C61.4351 12.2469 60.5904 12.0785 59.5858 12.0785H57.5652V22.3869ZM77.0861 26.2483C75.7105 26.2483 74.5233 25.9772 73.5244 25.4349C72.5313 24.887 71.7664 24.1078 71.2299 23.0975C70.699 22.0815 70.4336 20.8743 70.4336 19.4759C70.4336 18.1174 70.7019 16.9302 71.2384 15.9142C71.775 14.8925 72.5313 14.0991 73.5073 13.534C74.4833 12.9632 75.6335 12.6778 76.9577 12.6778C77.8938 12.6778 78.75 12.8234 79.5263 13.1145C80.3025 13.4056 80.9732 13.8365 81.5383 14.4073C82.1034 14.9781 82.5429 15.683 82.8568 16.5221C83.1707 17.3554 83.3277 18.3115 83.3277 19.3903V20.4348H71.8977V18.0033H79.4321C79.4264 17.558 79.3208 17.1613 79.1153 16.8132C78.9098 16.465 78.6273 16.1939 78.2677 15.9998C77.9138 15.8 77.5057 15.7001 77.0433 15.7001C76.5753 15.7001 76.1558 15.8057 75.7847 16.0169C75.4137 16.2224 75.1198 16.5049 74.9029 16.8645C74.686 17.2184 74.5718 17.6208 74.5604 18.0718V20.5461C74.5604 21.0827 74.666 21.5536 74.8772 21.9588C75.0884 22.3584 75.388 22.6695 75.7762 22.8921C76.1643 23.1147 76.6267 23.226 77.1632 23.226C77.5342 23.226 77.871 23.1746 78.1735 23.0719C78.476 22.9691 78.7357 22.8179 78.9526 22.6181C79.1695 22.4183 79.3322 22.1729 79.4406 21.8818L83.2849 21.9931C83.1251 22.855 82.774 23.6055 82.2318 24.2448C81.6953 24.8784 80.9903 25.3721 80.117 25.726C79.2437 26.0742 78.2334 26.2483 77.0861 26.2483ZM85.466 30.9316V12.849H89.6099V15.1008H89.7384C89.9096 14.7012 90.1522 14.316 90.4661 13.945C90.7858 13.5739 91.191 13.2714 91.6819 13.0374C92.1785 12.7977 92.7721 12.6778 93.4628 12.6778C94.376 12.6778 95.2294 12.9175 96.0228 13.397C96.8219 13.8765 97.4668 14.6156 97.9577 15.6145C98.4486 16.6134 98.694 17.8862 98.694 19.4331C98.694 20.9228 98.4572 22.17 97.9834 23.1746C97.5154 24.1792 96.8818 24.9326 96.0827 25.4349C95.2893 25.9372 94.4074 26.1884 93.4371 26.1884C92.775 26.1884 92.2013 26.0799 91.7162 25.863C91.231 25.6461 90.8229 25.3607 90.4918 25.0068C90.1665 24.6529 89.9153 24.2734 89.7384 23.8681H89.6528V30.9316H85.466ZM89.5671 19.4245C89.5671 20.1323 89.6613 20.7487 89.8497 21.2739C90.0437 21.799 90.3206 22.2071 90.6802 22.4982C91.0455 22.7836 91.4821 22.9263 91.9901 22.9263C92.5038 22.9263 92.9405 22.7836 93.3001 22.4982C93.6597 22.2071 93.9308 21.799 94.1135 21.2739C94.3018 20.7487 94.396 20.1323 94.396 19.4245C94.396 18.7167 94.3018 18.1031 94.1135 17.5837C93.9308 17.0643 93.6597 16.6619 93.3001 16.3765C92.9462 16.0911 92.5096 15.9484 91.9901 15.9484C91.4764 15.9484 91.0398 16.0883 90.6802 16.3679C90.3206 16.6476 90.0437 17.0472 89.8497 17.5666C89.6613 18.086 89.5671 18.7053 89.5671 19.4245ZM100.888 26V12.849H104.955V15.2464H105.092C105.332 14.3788 105.723 13.7338 106.265 13.3114C106.807 12.8833 107.438 12.6692 108.157 12.6692C108.351 12.6692 108.551 12.6835 108.756 12.7121C108.962 12.7349 109.153 12.772 109.33 12.8234V16.4621C109.13 16.3936 108.868 16.3394 108.542 16.2995C108.223 16.2595 107.937 16.2395 107.686 16.2395C107.19 16.2395 106.741 16.3508 106.342 16.5734C105.948 16.7903 105.637 17.0957 105.409 17.4895C105.186 17.8777 105.075 18.3343 105.075 18.8594V26H100.888ZM116.5 26.2483C115.125 26.2483 113.938 25.9772 112.939 25.4349C111.946 24.887 111.181 24.1078 110.644 23.0975C110.113 22.0815 109.848 20.8743 109.848 19.4759C109.848 18.1174 110.116 16.9302 110.653 15.9142C111.189 14.8925 111.946 14.0991 112.922 13.534C113.898 12.9632 115.048 12.6778 116.372 12.6778C117.308 12.6778 118.164 12.8234 118.941 13.1145C119.717 13.4056 120.388 13.8365 120.953 14.4073C121.518 14.9781 121.957 15.683 122.271 16.5221C122.585 17.3554 122.742 18.3115 122.742 19.3903V20.4348H111.312V18.0033H118.846C118.841 17.558 118.735 17.1613 118.53 16.8132C118.324 16.465 118.042 16.1939 117.682 15.9998C117.328 15.8 116.92 15.7001 116.458 15.7001C115.99 15.7001 115.57 15.8057 115.199 16.0169C114.828 16.2224 114.534 16.5049 114.317 16.8645C114.1 17.2184 113.986 17.6208 113.975 18.0718V20.5461C113.975 21.0827 114.08 21.5536 114.292 21.9588C114.503 22.3584 114.802 22.6695 115.191 22.8921C115.579 23.1147 116.041 23.226 116.578 23.226C116.949 23.226 117.285 23.1746 117.588 23.0719C117.89 22.9691 118.15 22.8179 118.367 22.6181C118.584 22.4183 118.747 22.1729 118.855 21.8818L122.699 21.9931C122.539 22.855 122.188 23.6055 121.646 24.2448C121.11 24.8784 120.405 25.3721 119.531 25.726C118.658 26.0742 117.648 26.2483 116.5 26.2483ZM124.88 26V12.849H128.862V15.2635H129.007C129.281 14.4644 129.743 13.8336 130.394 13.3713C131.045 12.909 131.821 12.6778 132.723 12.6778C133.636 12.6778 134.418 12.9118 135.069 13.3799C135.72 13.8479 136.133 14.4758 136.31 15.2635H136.447C136.693 14.4815 137.172 13.8565 137.886 13.3884C138.599 12.9147 139.441 12.6778 140.412 12.6778C141.656 12.6778 142.666 13.0774 143.442 13.8765C144.219 14.6699 144.607 15.7601 144.607 17.1471V26H140.42V18.106C140.42 17.4496 140.252 16.9502 139.915 16.6077C139.578 16.2595 139.142 16.0854 138.605 16.0854C138.028 16.0854 137.575 16.2738 137.244 16.6505C136.918 17.0215 136.756 17.5209 136.756 18.1488V26H132.732V18.0632C132.732 17.4524 132.566 16.9701 132.235 16.6162C131.904 16.2624 131.467 16.0854 130.925 16.0854C130.56 16.0854 130.237 16.1739 129.958 16.3508C129.678 16.5221 129.458 16.7675 129.298 17.0871C129.144 17.4068 129.067 17.7835 129.067 18.2173V26H124.88ZM147.038 10.349V8.46539H160.189V10.349H154.676V26H152.552V10.349H147.038ZM166.799 26.274C165.532 26.274 164.439 25.9943 163.52 25.4349C162.607 24.8698 161.902 24.0822 161.405 23.0719C160.914 22.0559 160.669 20.8743 160.669 19.5273C160.669 18.1802 160.914 16.993 161.405 15.9655C161.902 14.9324 162.592 14.1276 163.477 13.5511C164.368 12.9689 165.406 12.6778 166.594 12.6778C167.279 12.6778 167.955 12.792 168.623 13.0203C169.291 13.2486 169.898 13.6196 170.446 14.1333C170.994 14.6413 171.431 15.3148 171.756 16.1539C172.082 16.993 172.244 18.0261 172.244 19.2533V20.1095H162.107V18.3629H170.19C170.19 17.6208 170.041 16.9587 169.744 16.3765C169.453 15.7943 169.037 15.3348 168.494 14.9981C167.958 14.6613 167.324 14.4929 166.594 14.4929C165.789 14.4929 165.092 14.6927 164.504 15.0922C163.922 15.4861 163.474 15.9998 163.16 16.6334C162.846 17.2669 162.689 17.9462 162.689 18.6711V19.8355C162.689 20.8287 162.861 21.6706 163.203 22.3612C163.551 23.0462 164.034 23.5684 164.65 23.928C165.266 24.2819 165.983 24.4589 166.799 24.4589C167.33 24.4589 167.809 24.3847 168.237 24.2363C168.671 24.0822 169.045 23.8538 169.359 23.5513C169.673 23.2431 169.916 22.8607 170.087 22.404L172.039 22.952C171.833 23.6141 171.488 24.1963 171.003 24.6986C170.518 25.1952 169.918 25.5833 169.205 25.863C168.491 26.137 167.689 26.274 166.799 26.274ZM177.202 21.2054L177.167 18.7053H177.578L183.332 12.849H185.832L179.702 19.0478H179.53L177.202 21.2054ZM175.318 26V8.46539H177.339V26H175.318ZM183.674 26L178.537 19.493L179.976 18.0889L186.243 26H183.674Z" fill="url(#paint0_linear_1_9)"/>
<path d="M39.9897 17.3746C39.9897 18.5987 38.9712 19.5575 37.8168 19.5575H35.6438L35.6913 30.4515C35.7049 32.8656 33.756 34.8241 31.3454 34.8241H23.0542L20.4466 30.4651L25.9333 25.8885C26.463 25.4465 26.4494 24.6237 25.9062 24.1953L17.9069 17.8982C16.9155 17.1162 15.6118 18.3743 16.3587 19.3943L20.4466 25.0249L14.6407 29.8667C14.2265 30.2067 14.1314 30.8051 14.403 31.2607L16.5353 34.8173H9.58856C7.1915 34.8173 5.24262 32.8656 5.24262 30.4651V19.5575H3.06286C1.84057 19.5575 0.889893 18.6055 0.889893 17.3746C0.889893 16.7626 1.09361 16.2186 1.56895 15.7426L18.9799 0.54402C19.4552 0.0680025 19.9984 0 20.4738 0C20.9491 0 21.4923 0.136005 21.8998 0.476017L29.1385 6.84785V4.35216C29.1385 3.14851 30.1095 2.17608 31.3114 2.17608H33.4844C34.6863 2.17608 35.6574 3.14851 35.6574 4.35216V12.5805L39.2428 15.7358C39.786 16.2118 40.0576 16.7558 39.9897 17.3678V17.3746Z" fill="#53C4DA"/>
<defs>
<linearGradient id="paint0_linear_1_9" x1="52" y1="17.5" x2="187" y2="17.5" gradientUnits="userSpaceOnUse">
<stop stop-color="#53C4DA"/>
<stop offset="0.0001" stop-color="#53C4DA"/>
<stop offset="1" stop-color="#EAFCFF"/>
</linearGradient>
</defs>
</svg>
